<?xml version="1.0" encoding="UTF-8" standalone="no"?>
<svg
   xmlns:dc="http://purl.org/dc/elements/1.1/"
   xmlns:cc="http://creativecommons.org/ns#"
   xmlns:rdf="http://www.w3.org/1999/02/22-rdf-syntax-ns#"
   xmlns:svg="http://www.w3.org/2000/svg"
   xmlns="http://www.w3.org/2000/svg"
   xmlns:sodipodi="http://sodipodi.sourceforge.net/DTD/sodipodi-0.dtd"
   xmlns:inkscape="http://www.inkscape.org/namespaces/inkscape"
   version="1.1"
   width="108"
   height="106"
   x="0"
   y="0"
   viewBox="0 0 12.05068 11.827496"
   xml:space="preserve"
   class=""
   id="svg86"
   sodipodi:docname="upload-arrow.svg"
   inkscape:version="1.0.2-2 (e86c870879, 2021-01-15)"><metadata
     id="metadata92"><rdf:RDF><cc:Work
         rdf:about=""><dc:format>image/svg+xml</dc:format><dc:type
           rdf:resource="http://purl.org/dc/dcmitype/StillImage" /><dc:title></dc:title></cc:Work></rdf:RDF></metadata><defs
     id="defs90" /><sodipodi:namedview
     pagecolor="#ffffff"
     bordercolor="#666666"
     borderopacity="1"
     objecttolerance="10"
     gridtolerance="10"
     guidetolerance="10"
     inkscape:pageopacity="0"
     inkscape:pageshadow="2"
     inkscape:window-width="1920"
     inkscape:window-height="1001"
     id="namedview88"
     showgrid="false"
     showguides="true"
     inkscape:zoom="1.6210938"
     inkscape:cx="256"
     inkscape:cy="231.3253"
     inkscape:window-x="-9"
     inkscape:window-y="-9"
     inkscape:window-maximized="1"
     inkscape:current-layer="g84" /><g
     transform="matrix(0.2,0,0,0.2,22.8516,22.851698)"
     id="g84">
<path
   d="m -55.834434,-85.228643 v 19.219 c 0,5.466 -4.446999,9.913 -9.912999,9.913 h -37.138997 c -5.466,0 -9.913,-4.447 -9.913,-9.913 v -19.219 c 0,-0.552 0.448,-1 1,-1 0.552,0 1,0.448 1,1 v 19.219 c 0,4.363 3.55,7.913 7.913,7.913 h 37.138997 c 4.363,0 7.912999,-3.55 7.912999,-7.913 v -19.219 c 0,-0.552 0.448,-1 1,-1 0.552,0 1,0.447 1,1 z m -46.952996,-9.224 c -0.105,-0.255 -0.274,-0.927 0.446,-1.646 l 16.529997,-16.528997 c 0.796,-0.797 2.193,-0.797 2.99,0 l 16.529,16.528997 c 0.72,0.719 0.551,1.391 0.446,1.646 -0.106,0.255 -0.461,0.849 -1.479,0.849 h -6.499 c -0.061,0 -0.114,0.053 -0.114,0.114 v 21.001 c 0,1.166 -0.948,2.114 -2.114,2.114 h -16.528 c -1.166,0 -2.114,-0.948 -2.114,-2.114 v -21.001 c 0,-0.061 -0.053,-0.114 -0.114,-0.114 h -6.498997 c -1.018,0 -1.374,-0.594 -1.48,-0.849 z m 2.782,-1.153 5.196997,0.001 c 1.166,0 2.114,0.948 2.114,2.114 v 21.001 c 0,0.061 0.053,0.114 0.114,0.114 h 16.526 c 0.061,0 0.114,-0.053 0.114,-0.114 v -21 c 0,-1.166 0.948,-2.114 2.114,-2.114 h 5.196 l -15.606,-15.609997 c 0,0 -0.099,0 -0.142,0 -0.012,0 -0.02,0 -0.02,0 z"
   fill="#000000"
   data-original="#000000"
   class=""
   id="path52" />
<g
   id="g54">
</g>
<g
   id="g56">
</g>
<g
   id="g58">
</g>
<g
   id="g60">
</g>
<g
   id="g62">
</g>
<g
   id="g64">
</g>
<g
   id="g66">
</g>
<g
   id="g68">
</g>
<g
   id="g70">
</g>
<g
   id="g72">
</g>
<g
   id="g74">
</g>
<g
   id="g76">
</g>
<g
   id="g78">
</g>
<g
   id="g80">
</g>
<g
   id="g82">
</g>
</g></svg>
